<svg id="visual" viewBox="0 0 960 540" width="960" height="540" xmlns="http://www.w3.org/2000/svg" xmlns:xlink="http://www.w3.org/1999/xlink" version="1.1"><path d="M0 393L137 381L274 335L411 342L549 378L686 368L823 364L960 392L960 541L823 541L686 541L549 541L411 541L274 541L137 541L0 541Z" fill="#51d219"></path><path d="M0 411L137 427L274 415L411 412L549 357L686 391L823 426L960 401L960 541L823 541L686 541L549 541L411 541L274 541L137 541L0 541Z" fill="#3eb72b"></path><path d="M0 444L137 406L274 431L411 435L549 425L686 456L823 393L960 407L960 541L823 541L686 541L549 541L411 541L274 541L137 541L0 541Z" fill="#2f9d32"></path><path d="M0 471L137 458L274 452L411 476L549 487L686 460L823 442L960 468L960 541L823 541L686 541L549 541L411 541L274 541L137 541L0 541Z" fill="#268334"></path><path d="M0 495L137 499L274 475L411 485L549 485L686 476L823 479L960 478L960 541L823 541L686 541L549 541L411 541L274 541L137 541L0 541Z" fill="#226a33"></path></svg>