<svg id="visual" viewBox="0 0 960 540" width="960" height="540" xmlns="http://www.w3.org/2000/svg" xmlns:xlink="http://www.w3.org/1999/xlink" version="1.1"><path d="M0 92L137 141L274 117L411 89L549 132L686 88L823 130L960 110L960 0L823 0L686 0L549 0L411 0L274 0L137 0L0 0Z" fill="#030117"></path><path d="M0 104L137 115L274 103L411 124L549 84L686 75L823 75L960 101L960 0L823 0L686 0L549 0L411 0L274 0L137 0L0 0Z" fill="#040b1d"></path><path d="M0 111L137 72L274 108L411 99L549 77L686 108L823 93L960 75L960 0L823 0L686 0L549 0L411 0L274 0L137 0L0 0Z" fill="#031322"></path><path d="M0 64L137 91L274 86L411 97L549 58L686 96L823 56L960 88L960 0L823 0L686 0L549 0L411 0L274 0L137 0L0 0Z" fill="#021926"></path><path d="M0 70L137 48L274 79L411 74L549 71L686 47L823 57L960 70L960 0L823 0L686 0L549 0L411 0L274 0L137 0L0 0Z" fill="#001e2a"></path><path d="M0 35L137 58L274 45L411 38L549 39L686 56L823 54L960 46L960 0L823 0L686 0L549 0L411 0L274 0L137 0L0 0Z" fill="#00232d"></path><path d="M0 28L137 40L274 40L411 51L549 33L686 47L823 53L960 28L960 0L823 0L686 0L549 0L411 0L274 0L137 0L0 0Z" fill="#00292e"></path><path d="M0 33L137 39L274 37L411 27L549 39L686 39L823 28L960 24L960 0L823 0L686 0L549 0L411 0L274 0L137 0L0 0Z" fill="#002e2f"></path><path d="M0 23L137 17L274 11L411 19L549 23L686 19L823 9L960 10L960 0L823 0L686 0L549 0L411 0L274 0L137 0L0 0Z" fill="#09332e"></path></svg>