<svg id="visual" viewBox="0 0 900 600" width="900" height="600" xmlns="http://www.w3.org/2000/svg" xmlns:xlink="http://www.w3.org/1999/xlink" version="1.1"><path d="M0 398L129 424L257 449L386 424L514 469L643 444L771 468L900 447L900 601L771 601L643 601L514 601L386 601L257 601L129 601L0 601Z" fill="#6aab61"></path><path d="M0 480L129 459L257 440L386 436L514 442L643 491L771 470L900 454L900 601L771 601L643 601L514 601L386 601L257 601L129 601L0 601Z" fill="#008374"></path><path d="M0 467L129 508L257 501L386 499L514 468L643 517L771 466L900 509L900 601L771 601L643 601L514 601L386 601L257 601L129 601L0 601Z" fill="#005767"></path><path d="M0 538L129 531L257 521L386 531L514 509L643 534L771 548L900 543L900 601L771 601L643 601L514 601L386 601L257 601L129 601L0 601Z" fill="#0e2d42"></path><path d="M0 547L129 537L257 560L386 581L514 540L643 562L771 555L900 551L900 601L771 601L643 601L514 601L386 601L257 601L129 601L0 601Z" fill="#030117"></path></svg>