<svg id="visual" viewBox="0 0 900 600" width="900" height="600" xmlns="http://www.w3.org/2000/svg" xmlns:xlink="http://www.w3.org/1999/xlink" version="1.1"><path d="M0 461L129 389L257 424L386 465L514 402L643 467L771 404L900 434L900 601L771 601L643 601L514 601L386 601L257 601L129 601L0 601Z" fill="#044e33"></path><path d="M0 443L129 428L257 445L386 413L514 472L643 486L771 487L900 448L900 601L771 601L643 601L514 601L386 601L257 601L129 601L0 601Z" fill="#00463c"></path><path d="M0 434L129 491L257 438L386 451L514 483L643 437L771 459L900 487L900 601L771 601L643 601L514 601L386 601L257 601L129 601L0 601Z" fill="#003e40"></path><path d="M0 503L129 462L257 470L386 453L514 512L643 455L771 515L900 467L900 601L771 601L643 601L514 601L386 601L257 601L129 601L0 601Z" fill="#003440"></path><path d="M0 494L129 526L257 481L386 487L514 492L643 528L771 513L900 494L900 601L771 601L643 601L514 601L386 601L257 601L129 601L0 601Z" fill="#002b3a"></path><path d="M0 546L129 511L257 531L386 541L514 540L643 515L771 518L900 529L900 601L771 601L643 601L514 601L386 601L257 601L129 601L0 601Z" fill="#042232"></path><path d="M0 556L129 538L257 538L386 523L514 549L643 528L771 519L900 556L900 601L771 601L643 601L514 601L386 601L257 601L129 601L0 601Z" fill="#07192a"></path><path d="M0 549L129 540L257 543L386 557L514 539L643 540L771 557L900 562L900 601L771 601L643 601L514 601L386 601L257 601L129 601L0 601Z" fill="#071020"></path><path d="M0 563L129 572L257 581L386 569L514 563L643 569L771 584L900 583L900 601L771 601L643 601L514 601L386 601L257 601L129 601L0 601Z" fill="#030117"></path></svg>