<svg id="visual" viewBox="0 0 900 600" width="900" height="600" xmlns="http://www.w3.org/2000/svg" xmlns:xlink="http://www.w3.org/1999/xlink" version="1.1"><path d="M0 454L129 419L257 404L386 422L514 427L643 468L771 426L900 399L900 601L771 601L643 601L514 601L386 601L257 601L129 601L0 601Z" fill="#033c40"></path><path d="M0 468L129 429L257 440L386 487L514 445L643 479L771 444L900 467L900 601L771 601L643 601L514 601L386 601L257 601L129 601L0 601Z" fill="#00353d"></path><path d="M0 448L129 468L257 461L386 448L514 491L643 486L771 492L900 476L900 601L771 601L643 601L514 601L386 601L257 601L129 601L0 601Z" fill="#002f3a"></path><path d="M0 505L129 502L257 517L386 495L514 501L643 485L771 453L900 499L900 601L771 601L643 601L514 601L386 601L257 601L129 601L0 601Z" fill="#012835"></path><path d="M0 484L129 523L257 511L386 491L514 486L643 482L771 488L900 499L900 601L771 601L643 601L514 601L386 601L257 601L129 601L0 601Z" fill="#032230"></path><path d="M0 496L129 518L257 519L386 505L514 516L643 500L771 530L900 528L900 601L771 601L643 601L514 601L386 601L257 601L129 601L0 601Z" fill="#051c2a"></path><path d="M0 528L129 520L257 557L386 560L514 527L643 520L771 522L900 556L900 601L771 601L643 601L514 601L386 601L257 601L129 601L0 601Z" fill="#061524"></path><path d="M0 551L129 552L257 547L386 560L514 562L643 574L771 542L900 539L900 601L771 601L643 601L514 601L386 601L257 601L129 601L0 601Z" fill="#060c1e"></path><path d="M0 579L129 567L257 585L386 564L514 574L643 586L771 567L900 584L900 601L771 601L643 601L514 601L386 601L257 601L129 601L0 601Z" fill="#030117"></path></svg>