<svg id="visual" viewBox="0 0 960 540" width="960" height="540" xmlns="http://www.w3.org/2000/svg" xmlns:xlink="http://www.w3.org/1999/xlink" version="1.1"><path d="M0 446L137 397L274 421L411 449L549 406L686 450L823 408L960 428L960 541L823 541L686 541L549 541L411 541L274 541L137 541L0 541Z" fill="#030117"></path><path d="M0 434L137 423L274 435L411 414L549 454L686 463L823 463L960 437L960 541L823 541L686 541L549 541L411 541L274 541L137 541L0 541Z" fill="#040b1d"></path><path d="M0 427L137 466L274 430L411 439L549 461L686 430L823 445L960 463L960 541L823 541L686 541L549 541L411 541L274 541L137 541L0 541Z" fill="#031322"></path><path d="M0 474L137 447L274 452L411 441L549 480L686 442L823 482L960 450L960 541L823 541L686 541L549 541L411 541L274 541L137 541L0 541Z" fill="#021926"></path><path d="M0 468L137 490L274 459L411 464L549 467L686 491L823 481L960 468L960 541L823 541L686 541L549 541L411 541L274 541L137 541L0 541Z" fill="#001e2a"></path><path d="M0 503L137 480L274 493L411 500L549 499L686 482L823 484L960 492L960 541L823 541L686 541L549 541L411 541L274 541L137 541L0 541Z" fill="#00232d"></path><path d="M0 510L137 498L274 498L411 487L549 505L686 491L823 485L960 510L960 541L823 541L686 541L549 541L411 541L274 541L137 541L0 541Z" fill="#00292e"></path><path d="M0 505L137 499L274 501L411 511L549 499L686 499L823 510L960 514L960 541L823 541L686 541L549 541L411 541L274 541L137 541L0 541Z" fill="#002e2f"></path><path d="M0 515L137 521L274 527L411 519L549 515L686 519L823 529L960 528L960 541L823 541L686 541L549 541L411 541L274 541L137 541L0 541Z" fill="#09332e"></path></svg>