<svg id="visual" viewBox="0 0 960 540" width="960" height="540" xmlns="http://www.w3.org/2000/svg" xmlns:xlink="http://www.w3.org/1999/xlink" version="1.1"><path d="M0 400L64 400L64 359L128 359L128 392L192 392L192 355L256 355L256 405L320 405L320 407L384 407L384 369L448 369L448 360L512 360L512 393L576 393L576 395L640 395L640 363L704 363L704 373L768 373L768 355L832 355L832 353L896 353L896 405L960 405L960 392L960 541L960 541L896 541L896 541L832 541L832 541L768 541L768 541L704 541L704 541L640 541L640 541L576 541L576 541L512 541L512 541L448 541L448 541L384 541L384 541L320 541L320 541L256 541L256 541L192 541L192 541L128 541L128 541L64 541L64 541L0 541Z" fill="#00ff74"></path><path d="M0 400L64 400L64 431L128 431L128 395L192 395L192 387L256 387L256 398L320 398L320 418L384 418L384 422L448 422L448 394L512 394L512 422L576 422L576 398L640 398L640 418L704 418L704 404L768 404L768 415L832 415L832 391L896 391L896 396L960 396L960 402L960 541L960 541L896 541L896 541L832 541L832 541L768 541L768 541L704 541L704 541L640 541L640 541L576 541L576 541L512 541L512 541L448 541L448 541L384 541L384 541L320 541L320 541L256 541L256 541L192 541L192 541L128 541L128 541L64 541L64 541L0 541Z" fill="#00c45f"></path><path d="M0 446L64 446L64 446L128 446L128 427L192 427L192 453L256 453L256 425L320 425L320 445L384 445L384 426L448 426L448 458L512 458L512 451L576 451L576 421L640 421L640 465L704 465L704 442L768 442L768 462L832 462L832 438L896 438L896 433L960 433L960 446L960 541L960 541L896 541L896 541L832 541L832 541L768 541L768 541L704 541L704 541L640 541L640 541L576 541L576 541L512 541L512 541L448 541L448 541L384 541L384 541L320 541L320 541L256 541L256 541L192 541L192 541L128 541L128 541L64 541L64 541L0 541Z" fill="#008c48"></path><path d="M0 486L64 486L64 462L128 462L128 471L192 471L192 459L256 459L256 473L320 473L320 492L384 492L384 491L448 491L448 484L512 484L512 480L576 480L576 481L640 481L640 477L704 477L704 487L768 487L768 462L832 462L832 483L896 483L896 466L960 466L960 490L960 541L960 541L896 541L896 541L832 541L832 541L768 541L768 541L704 541L704 541L640 541L640 541L576 541L576 541L512 541L512 541L448 541L448 541L384 541L384 541L320 541L320 541L256 541L256 541L192 541L192 541L128 541L128 541L64 541L64 541L0 541Z" fill="#0a5830"></path><path d="M0 486L64 486L64 515L128 515L128 504L192 504L192 513L256 513L256 488L320 488L320 504L384 504L384 497L448 497L448 499L512 499L512 496L576 496L576 505L640 505L640 514L704 514L704 518L768 518L768 515L832 515L832 486L896 486L896 521L960 521L960 489L960 541L960 541L896 541L896 541L832 541L832 541L768 541L768 541L704 541L704 541L640 541L640 541L576 541L576 541L512 541L512 541L448 541L448 541L384 541L384 541L320 541L320 541L256 541L256 541L192 541L192 541L128 541L128 541L64 541L64 541L0 541Z" fill="#0b2818"></path></svg>