<svg id="visual" viewBox="0 0 960 540" width="960" height="540" xmlns="http://www.w3.org/2000/svg" xmlns:xlink="http://www.w3.org/1999/xlink" version="1.1"><path d="M0 374L96 374L96 377L192 377L192 372L288 372L288 384L384 384L384 358L480 358L480 371L576 371L576 397L672 397L672 394L768 394L768 357L864 357L864 405L960 405L960 396L960 541L960 541L864 541L864 541L768 541L768 541L672 541L672 541L576 541L576 541L480 541L480 541L384 541L384 541L288 541L288 541L192 541L192 541L96 541L96 541L0 541Z" fill="#060335"></path><path d="M0 435L96 435L96 399L192 399L192 435L288 435L288 447L384 447L384 434L480 434L480 396L576 396L576 404L672 404L672 404L768 404L768 411L864 411L864 430L960 430L960 413L960 541L960 541L864 541L864 541L768 541L768 541L672 541L672 541L576 541L576 541L480 541L480 541L384 541L384 541L288 541L288 541L192 541L192 541L96 541L96 541L0 541Z" fill="#07022b"></path><path d="M0 477L96 477L96 459L192 459L192 459L288 459L288 469L384 469L384 467L480 467L480 478L576 478L576 438L672 438L672 482L768 482L768 444L864 444L864 451L960 451L960 444L960 541L960 541L864 541L864 541L768 541L768 541L672 541L672 541L576 541L576 541L480 541L480 541L384 541L384 541L288 541L288 541L192 541L192 541L96 541L96 541L0 541Z" fill="#060221"></path><path d="M0 481L96 481L96 498L192 498L192 481L288 481L288 509L384 509L384 498L480 498L480 506L576 506L576 480L672 480L672 497L768 497L768 505L864 505L864 483L960 483L960 506L960 541L960 541L864 541L864 541L768 541L768 541L672 541L672 541L576 541L576 541L480 541L480 541L384 541L384 541L288 541L288 541L192 541L192 541L96 541L96 541L0 541Z" fill="#030117"></path></svg>