<svg id="visual" viewBox="0 0 900 600" width="900" height="600" xmlns="http://www.w3.org/2000/svg" xmlns:xlink="http://www.w3.org/1999/xlink" version="1.1"><path d="M0 495L129 441L257 467L386 499L514 451L643 500L771 453L900 475L900 601L771 601L643 601L514 601L386 601L257 601L129 601L0 601Z" fill="#0ea36d"></path><path d="M0 482L129 471L257 483L386 460L514 504L643 514L771 515L900 486L900 601L771 601L643 601L514 601L386 601L257 601L129 601L0 601Z" fill="#00907b"></path><path d="M0 475L129 518L257 478L386 488L514 512L643 478L771 494L900 515L900 601L771 601L643 601L514 601L386 601L257 601L129 601L0 601Z" fill="#007b80"></path><path d="M0 527L129 496L257 502L386 490L514 533L643 491L771 536L900 500L900 601L771 601L643 601L514 601L386 601L257 601L129 601L0 601Z" fill="#00667a"></path><path d="M0 520L129 544L257 510L386 515L514 518L643 545L771 535L900 520L900 601L771 601L643 601L514 601L386 601L257 601L129 601L0 601Z" fill="#00516a"></path><path d="M0 559L129 533L257 548L386 556L514 555L643 536L771 538L900 547L900 601L771 601L643 601L514 601L386 601L257 601L129 601L0 601Z" fill="#0e3d56"></path><path d="M0 567L129 553L257 553L386 542L514 561L643 546L771 539L900 567L900 601L771 601L643 601L514 601L386 601L257 601L129 601L0 601Z" fill="#112a41"></path><path d="M0 561L129 555L257 557L386 568L514 554L643 555L771 567L900 571L900 601L771 601L643 601L514 601L386 601L257 601L129 601L0 601Z" fill="#0f192b"></path><path d="M0 572L129 579L257 585L386 577L514 572L643 576L771 587L900 587L900 601L771 601L643 601L514 601L386 601L257 601L129 601L0 601Z" fill="#030117"></path></svg>