<svg id="visual" viewBox="0 0 960 540" width="960" height="540" xmlns="http://www.w3.org/2000/svg" xmlns:xlink="http://www.w3.org/1999/xlink" version="1.1"><path d="M0 89L137 135L274 109L411 134L549 119L686 89L823 127L960 119L960 0L823 0L686 0L549 0L411 0L274 0L137 0L0 0Z" fill="#030117"></path><path d="M0 94L137 76L274 95L411 98L549 87L686 81L823 86L960 103L960 0L823 0L686 0L549 0L411 0L274 0L137 0L0 0Z" fill="#040b1d"></path><path d="M0 82L137 76L274 69L411 104L549 67L686 101L823 111L960 73L960 0L823 0L686 0L549 0L411 0L274 0L137 0L0 0Z" fill="#031322"></path><path d="M0 68L137 67L274 55L411 85L549 65L686 80L823 59L960 74L960 0L823 0L686 0L549 0L411 0L274 0L137 0L0 0Z" fill="#021926"></path><path d="M0 68L137 79L274 62L411 58L549 48L686 75L823 56L960 64L960 0L823 0L686 0L549 0L411 0L274 0L137 0L0 0Z" fill="#001e2a"></path><path d="M0 62L137 50L274 64L411 65L549 53L686 59L823 66L960 42L960 0L823 0L686 0L549 0L411 0L274 0L137 0L0 0Z" fill="#00232d"></path><path d="M0 50L137 44L274 30L411 42L549 49L686 40L823 51L960 31L960 0L823 0L686 0L549 0L411 0L274 0L137 0L0 0Z" fill="#00292e"></path><path d="M0 26L137 31L274 29L411 18L549 22L686 31L823 19L960 37L960 0L823 0L686 0L549 0L411 0L274 0L137 0L0 0Z" fill="#002e2f"></path><path d="M0 15L137 13L274 9L411 10L549 12L686 18L823 17L960 21L960 0L823 0L686 0L549 0L411 0L274 0L137 0L0 0Z" fill="#09332e"></path></svg>